<svg width="109" height="30" viewBox="0 0 109 30" fill="none" xmlns="http://www.w3.org/2000/svg">
<path d="M1.00781 23.7266C0.976562 23.6484 0.960938 23.3672 0.960938 22.8828C0.960938 22.3984 0.960938 21.7891 0.960938 21.0547C0.976562 20.3203 0.992188 19.5 1.00781 18.5938C1.03906 17.6719 1.0625 16.7422 1.07812 15.8047C1.10938 14.8516 1.14062 13.9297 1.17188 13.0391C1.20312 12.1328 1.22656 11.3281 1.24219 10.625C1.27344 9.92188 1.29688 9.35156 1.3125 8.91406C1.32812 8.46094 1.34375 8.21875 1.35938 8.1875C1.375 8.125 1.44531 7.96875 1.57031 7.71875C1.69531 7.46875 1.83594 7.21094 1.99219 6.94531C2.16406 6.66406 2.33594 6.42187 2.50781 6.21875C2.67969 6 2.82812 5.89844 2.95312 5.91406C3 5.92969 3.03906 6.24219 3.07031 6.85156C3.11719 7.44531 3.15625 8.21094 3.1875 9.14844C3.23438 10.0859 3.26562 11.125 3.28125 12.2656C3.3125 13.3906 3.33594 14.4922 3.35156 15.5703C3.38281 16.6328 3.40625 17.6016 3.42188 18.4766C3.4375 19.3359 3.45312 19.9688 3.46875 20.375C3.96875 20.4219 4.46875 20.4609 4.96875 20.4922C5.48438 20.5234 5.94531 20.5625 6.35156 20.6094C6.75781 20.6406 7.08594 20.6719 7.33594 20.7031C7.60156 20.7344 7.74219 20.7578 7.75781 20.7734C7.80469 20.8359 7.86719 20.9844 7.94531 21.2188C8.03906 21.4375 8.125 21.6797 8.20312 21.9453C8.28125 22.1953 8.33594 22.4297 8.36719 22.6484C8.41406 22.8672 8.40625 23 8.34375 23.0469C6.54688 23.375 5.15625 23.5938 4.17188 23.7031C3.1875 23.8125 2.46094 23.8672 1.99219 23.8672C1.44531 23.8672 1.11719 23.8203 1.00781 23.7266ZM10.125 16.2266C10.375 16.1328 10.6562 16.0312 10.9688 15.9219C11.2969 15.7969 11.6094 15.6875 11.9062 15.5938C12.2031 15.4844 12.4688 15.3906 12.7031 15.3125C12.9375 15.2344 13.1094 15.1719 13.2188 15.125C13.2031 14.9531 13.1797 14.7578 13.1484 14.5391C13.1328 14.3047 13.1094 14.0859 13.0781 13.8828C13.0469 13.6641 13.0078 13.4766 12.9609 13.3203C12.9141 13.1641 12.8672 13.0703 12.8203 13.0391C12.6953 12.9922 12.4844 12.9531 12.1875 12.9219C11.9062 12.875 11.6094 12.8828 11.2969 12.9453C11 13.0078 10.7266 13.125 10.4766 13.2969C10.2266 13.4688 10.0859 13.7422 10.0547 14.1172C10.0234 14.3672 10.0156 14.6797 10.0312 15.0547C10.0469 15.4297 10.0781 15.8203 10.125 16.2266ZM15.2109 16.6016C15.1953 16.6328 15.0078 16.6953 14.6484 16.7891C14.2891 16.8828 13.8594 16.9844 13.3594 17.0938C12.8594 17.1875 12.3281 17.2891 11.7656 17.3984C11.2031 17.4922 10.7188 17.5703 10.3125 17.6328C10.3906 18.2578 10.4844 18.8203 10.5938 19.3203C10.7031 19.8047 10.7969 20.1094 10.875 20.2344C10.9531 20.3438 11.0547 20.4453 11.1797 20.5391C11.2891 20.6172 11.4219 20.6953 11.5781 20.7734C11.75 20.8359 11.9531 20.8828 12.1875 20.9141C12.3594 20.9609 12.5234 20.8984 12.6797 20.7266C12.8047 20.5703 12.9141 20.2969 13.0078 19.9062C13.1172 19.5156 13.1719 18.8984 13.1719 18.0547C13.6562 17.9766 14.0312 17.9297 14.2969 17.9141C14.5781 17.8984 14.7812 17.8984 14.9062 17.9141C15.0625 17.9297 15.1562 17.9531 15.1875 17.9844C15.2031 18.0312 15.2031 18.1484 15.1875 18.3359C15.1719 18.5234 15.1328 18.7578 15.0703 19.0391C15.0234 19.3047 14.9609 19.6016 14.8828 19.9297C14.8203 20.2422 14.7422 20.5469 14.6484 20.8438C14.5547 21.125 14.4531 21.3828 14.3438 21.6172C14.2344 21.8359 14.1172 21.9922 13.9922 22.0859C13.6172 22.3672 13.1484 22.5078 12.5859 22.5078C12.0234 22.4922 11.4688 22.4141 10.9219 22.2734C10.375 22.1172 9.88281 21.9375 9.44531 21.7344C9.00781 21.5156 8.73438 21.3359 8.625 21.1953C8.54688 21.1016 8.47656 20.8672 8.41406 20.4922C8.35156 20.1016 8.29688 19.6328 8.25 19.0859C8.21875 18.5391 8.19531 17.9375 8.17969 17.2812C8.16406 16.625 8.17188 15.9844 8.20312 15.3594C8.25 14.7344 8.3125 14.1562 8.39062 13.625C8.48438 13.0938 8.60938 12.6641 8.76562 12.3359C9 11.8672 9.38281 11.4844 9.91406 11.1875C10.4453 10.8906 11.0078 10.6875 11.6016 10.5781C12.1953 10.4688 12.7578 10.4531 13.2891 10.5312C13.8359 10.6094 14.2422 10.7812 14.5078 11.0469C14.6641 11.2031 14.8047 11.5156 14.9297 11.9844C15.0547 12.4375 15.1328 12.9922 15.1641 13.6484C15.1641 13.7109 15.1719 13.8906 15.1875 14.1875C15.2031 14.4844 15.2109 14.8047 15.2109 15.1484C15.2266 15.4766 15.2344 15.7891 15.2344 16.0859C15.2344 16.3828 15.2266 16.5547 15.2109 16.6016ZM22.8516 10.6719C22.9453 10.7812 23.0312 10.8984 23.1094 11.0234C23.1875 11.1328 23.2578 11.2891 23.3203 11.4922C23.3828 11.6797 23.4297 11.9297 23.4609 12.2422C23.5078 12.5547 23.5312 12.9609 23.5312 13.4609C23.5312 14.2578 23.5078 15.0625 23.4609 15.875C23.4297 16.6719 23.3984 17.375 23.3672 17.9844C23.3516 18.5312 23.3359 19.0391 23.3203 19.5078C23.3047 19.9766 23.2891 20.3906 23.2734 20.75C23.2578 21.0938 23.2344 21.3672 23.2031 21.5703C23.1875 21.7734 23.1719 21.8828 23.1562 21.8984C23.0938 21.9453 22.9922 21.9297 22.8516 21.8516C22.7266 21.7578 22.5859 21.6406 22.4297 21.5C22.2891 21.3594 22.1562 21.2109 22.0312 21.0547C21.9062 20.8984 21.8281 20.7734 21.7969 20.6797C21.7969 20.6016 21.7734 20.375 21.7266 20C21.3516 20.2188 20.9375 20.375 20.4844 20.4688C20.0312 20.5469 19.5781 20.5781 19.125 20.5625C18.6875 20.5312 18.2812 20.4453 17.9062 20.3047C17.5312 20.1641 17.25 19.9766 17.0625 19.7422C16.9844 19.6484 16.9141 19.5078 16.8516 19.3203C16.8047 19.1328 16.7578 18.9219 16.7109 18.6875C16.6797 18.4375 16.6484 18.1797 16.6172 17.9141C16.5859 17.6328 16.5625 17.375 16.5469 17.1406C16.5156 16.5312 16.5938 16.0078 16.7812 15.5703C16.9688 15.1172 17.3125 14.7812 17.8125 14.5625C18.0312 14.4688 18.3203 14.4219 18.6797 14.4219C19.0547 14.4062 19.4219 14.4219 19.7812 14.4688C20.1562 14.5 20.4922 14.5469 20.7891 14.6094C21.0859 14.6562 21.2734 14.6953 21.3516 14.7266C21.2891 13.9297 21.2422 13.2422 21.2109 12.6641C21.1797 12.0703 21.1172 11.6875 21.0234 11.5156C20.9453 11.4062 20.8516 11.2969 20.7422 11.1875C20.6484 11.1094 20.5234 11.0234 20.3672 10.9297C20.2109 10.8359 20.0234 10.7656 19.8047 10.7188C19.6328 10.6875 19.4766 10.7578 19.3359 10.9297C19.2109 11.0859 19.0938 11.3672 18.9844 11.7734C18.8906 12.1641 18.8359 12.7656 18.8203 13.5781C18.2734 13.5938 17.8516 13.5938 17.5547 13.5781C17.2734 13.5469 17.0625 13.5156 16.9219 13.4844C16.75 13.4531 16.6484 13.4141 16.6172 13.3672C16.5859 13.3047 16.6016 13.0781 16.6641 12.6875C16.7266 12.2812 16.8125 11.8438 16.9219 11.375C17.0469 10.9062 17.1875 10.4609 17.3438 10.0391C17.5156 9.61719 17.6953 9.35156 17.8828 9.24219C18.2578 9.02344 18.7031 8.94531 19.2188 9.00781C19.75 9.07031 20.2656 9.20312 20.7656 9.40625C21.2656 9.60938 21.7109 9.83594 22.1016 10.0859C22.4922 10.3359 22.7422 10.5312 22.8516 10.6719ZM21.3984 17.5156C21.3984 17.4375 21.4062 17.3359 21.4219 17.2109C21.4375 17.0703 21.4453 16.9297 21.4453 16.7891C21.4453 16.6484 21.4375 16.5156 21.4219 16.3906C21.4219 16.2656 21.4062 16.1719 21.375 16.1094C21.3281 16.0156 21.1875 15.9375 20.9531 15.875C20.7344 15.8125 20.4844 15.7734 20.2031 15.7578C19.9219 15.7266 19.6562 15.7188 19.4062 15.7344C19.1562 15.7344 18.9844 15.7656 18.8906 15.8281C18.7656 15.9062 18.6719 16.0156 18.6094 16.1562C18.5625 16.2969 18.5312 16.5156 18.5156 16.8125C18.5156 16.9531 18.5234 17.1016 18.5391 17.2578C18.5547 17.4141 18.5703 17.5703 18.5859 17.7266C18.6172 17.8672 18.6484 17.9922 18.6797 18.1016C18.7266 18.2109 18.7734 18.2812 18.8203 18.3125C18.9297 18.3906 19.1172 18.4609 19.3828 18.5234C19.6641 18.5703 19.9453 18.5859 20.2266 18.5703C20.5078 18.5391 20.7656 18.4453 21 18.2891C21.2344 18.1328 21.3672 17.875 21.3984 17.5156ZM30.1172 10.2266C30.2422 10.3047 30.3594 10.4609 30.4688 10.6953C30.5938 10.9141 30.7031 11.1719 30.7969 11.4688C30.9062 11.75 30.9922 12.0547 31.0547 12.3828C31.1328 12.7109 31.1953 13.0156 31.2422 13.2969C31.3047 13.5781 31.3438 13.8203 31.3594 14.0234C31.375 14.2109 31.375 14.3281 31.3594 14.375C31.3281 14.4375 31.2344 14.5 31.0781 14.5625C30.9375 14.625 30.7266 14.6953 30.4453 14.7734C30.1641 14.8516 29.7734 14.9375 29.2734 15.0312C29.2422 14.1719 29.1797 13.5234 29.0859 13.0859C28.9922 12.6328 28.8906 12.3125 28.7812 12.125C28.6562 11.9062 28.5234 11.7969 28.3828 11.7969C28.2422 11.8594 28.1172 11.9375 28.0078 12.0312C27.8984 12.1094 27.8047 12.1953 27.7266 12.2891C27.6328 12.3984 27.5469 12.5156 27.4688 12.6406C27.4375 12.6875 27.4062 12.7969 27.375 12.9688C27.3438 13.1406 27.3125 13.3984 27.2812 13.7422C27.2812 13.8516 27.2734 14.0781 27.2578 14.4219C27.2578 14.7656 27.25 15.1641 27.2344 15.6172C27.2344 16.0703 27.2266 16.5469 27.2109 17.0469C27.2109 17.5469 27.2031 18.0156 27.1875 18.4531C27.1875 18.875 27.1797 19.2344 27.1641 19.5312C27.1641 19.8281 27.1562 20 27.1406 20.0469C27.1094 20.125 27.0312 20.2344 26.9062 20.375C26.7812 20.5156 26.6406 20.6484 26.4844 20.7734C26.3281 20.8828 26.1797 20.9766 26.0391 21.0547C25.8984 21.1172 25.8047 21.1094 25.7578 21.0312C25.7109 20.9844 25.6641 20.7812 25.6172 20.4219C25.5703 20.0625 25.5156 19.625 25.4531 19.1094C25.4062 18.5781 25.3516 18 25.2891 17.375C25.2266 16.75 25.1719 16.1484 25.125 15.5703C25.0781 14.9922 25.0391 14.4766 25.0078 14.0234C24.9766 13.5547 24.9531 13.2188 24.9375 13.0156C24.9219 12.7188 24.9062 12.3906 24.8906 12.0312C24.875 11.6719 24.8594 11.3359 24.8438 11.0234C24.8438 10.6953 24.8438 10.4141 24.8438 10.1797C24.8594 9.92969 24.8906 9.78125 24.9375 9.73438C24.9688 9.6875 25.0703 9.67969 25.2422 9.71094C25.4297 9.72656 25.625 9.77344 25.8281 9.85156C26.0469 9.91406 26.25 10 26.4375 10.1094C26.625 10.2188 26.75 10.3203 26.8125 10.4141C26.8594 10.4922 26.9062 10.6094 26.9531 10.7656C27.25 10.6094 27.5312 10.4688 27.7969 10.3438C28.0781 10.2031 28.3438 10.1016 28.5938 10.0391C28.8594 9.97656 29.1172 9.96094 29.3672 9.99219C29.6172 10.0078 29.8672 10.0859 30.1172 10.2266ZM38.8359 13.1797C38.8359 13.4297 38.8047 13.7891 38.7422 14.2578C38.6953 14.7266 38.625 15.2422 38.5312 15.8047C38.4375 16.3516 38.3359 16.9219 38.2266 17.5156C38.1328 18.0938 38.0312 18.625 37.9219 19.1094C37.8281 19.5938 37.7422 20 37.6641 20.3281C37.6016 20.6562 37.5625 20.8359 37.5469 20.8672C37.5156 20.9141 37.4297 20.9453 37.2891 20.9609C37.1641 20.9609 37.0156 20.9453 36.8438 20.9141C36.6875 20.8828 36.5391 20.8359 36.3984 20.7734C36.2734 20.7109 36.1953 20.6328 36.1641 20.5391C36.1484 20.4766 36.1406 20.2578 36.1406 19.8828C36.1562 19.5078 36.1719 19.0625 36.1875 18.5469C36.2188 18.0156 36.25 17.4531 36.2812 16.8594C36.3125 16.25 36.3438 15.6875 36.375 15.1719C36.4219 14.6406 36.4531 14.1875 36.4688 13.8125C36.5 13.4375 36.5156 13.2109 36.5156 13.1328C36.5156 12.8516 36.4844 12.5859 36.4219 12.3359C36.375 12.0703 36.3125 11.8438 36.2344 11.6562C36.1562 11.4688 36.0625 11.3281 35.9531 11.2344C35.8594 11.125 35.7734 11.0859 35.6953 11.1172C35.4922 11.1484 35.3203 11.2031 35.1797 11.2812C35.0391 11.3438 34.9219 11.4141 34.8281 11.4922C34.7188 11.5859 34.6328 11.6953 34.5703 11.8203C34.5547 11.8516 34.5234 11.9453 34.4766 12.1016C34.4453 12.2578 34.4297 12.4375 34.4297 12.6406C34.4297 12.7031 34.4297 12.9297 34.4297 13.3203C34.4297 13.6953 34.4219 14.1484 34.4062 14.6797C34.4062 15.2109 34.3984 15.7891 34.3828 16.4141C34.3828 17.0234 34.375 17.5938 34.3594 18.125C34.3594 18.6406 34.3516 19.0859 34.3359 19.4609C34.3203 19.8359 34.3047 20.0469 34.2891 20.0938C34.2578 20.1875 34.1797 20.3203 34.0547 20.4922C33.9297 20.6484 33.7891 20.7969 33.6328 20.9375C33.4766 21.0781 33.3281 21.1875 33.1875 21.2656C33.0469 21.3281 32.9531 21.3125 32.9062 21.2188C32.8594 21.1719 32.8125 20.9453 32.7656 20.5391C32.7188 20.1172 32.6641 19.6094 32.6016 19.0156C32.5547 18.4062 32.5 17.75 32.4375 17.0469C32.375 16.3281 32.3203 15.6406 32.2734 14.9844C32.2266 14.3281 32.1875 13.7344 32.1562 13.2031C32.125 12.6719 32.1016 12.2891 32.0859 12.0547C32.0703 11.7266 32.0547 11.3594 32.0391 10.9531C32.0234 10.5312 32.0078 10.1406 31.9922 9.78125C31.9922 9.40625 31.9922 9.08594 31.9922 8.82031C32.0078 8.53906 32.0391 8.36719 32.0859 8.30469C32.1172 8.24219 32.2188 8.22656 32.3906 8.25781C32.5781 8.28906 32.7734 8.35156 32.9766 8.44531C33.1953 8.52344 33.3984 8.625 33.5859 8.75C33.7734 8.85938 33.8984 8.96875 33.9609 9.07812C33.9922 9.17188 34.0312 9.28125 34.0781 9.40625C34.125 9.51562 34.1641 9.70312 34.1953 9.96875C34.4609 9.8125 34.75 9.67188 35.0625 9.54688C35.375 9.40625 35.6797 9.30469 35.9766 9.24219C36.2891 9.16406 36.5859 9.14062 36.8672 9.17188C37.1484 9.1875 37.3984 9.26562 37.6172 9.40625C37.7578 9.51562 37.8984 9.70312 38.0391 9.96875C38.1953 10.2344 38.3281 10.5469 38.4375 10.9062C38.5625 11.2656 38.6562 11.6484 38.7188 12.0547C38.7969 12.4453 38.8359 12.8203 38.8359 13.1797Z" fill="#007BFF"/>
<path d="M50.1581 9.50039C49.3741 10.1353 48.7412 10.941 48.3065 11.8576C47.8718 12.7742 47.6463 13.7783 47.6469 14.7953C47.65 17.2754 47.0872 19.7228 46.0024 21.946M55.3588 25.8C56.9615 22.3593 58.0156 16.3496 57.7791 14.7953C57.4865 12.8729 56.5653 11.3367 54.3437 11.3367C51.798 11.3367 51.0223 13.9233 51.0223 15.0222M64.1751 21.3063C64.5896 19.1614 64.7988 16.9809 64.8 14.7953C64.8 11.9853 63.6983 9.29026 61.7373 7.30327C59.7763 5.31628 57.1166 4.2 54.3433 4.2C51.57 4.2 48.9103 5.31628 46.9493 7.30327C44.9883 9.29026 43.8866 11.9852 43.8866 14.7952C43.8877 16.1888 43.6555 17.5725 43.2 18.8873M48.5661 24.2387C49.626 22.3958 50.3796 20.3889 50.7969 18.2982M60.8153 18.502C60.9671 17.2727 61.0421 16.0338 61.0396 14.795C61.0396 12.9956 60.3341 11.2698 59.0783 9.99746C57.8226 8.7251 56.1195 8.01016 54.3437 8.01016C54.0639 8.00821 53.7844 8.02441 53.5067 8.05864M60.1192 22.2073C59.9423 22.8884 59.7415 23.5703 59.5295 24.2387M51.812 25.2963C53.1457 22.8871 54.3488 18.8952 54.3488 14.8321" stroke="#14DA8F" stroke-width="2" stroke-linecap="round" stroke-linejoin="round"/>
<path d="M75.8516 9.57031C75.7891 9.64844 75.4062 9.65625 74.7031 9.59375C74 9.53125 72.8906 9.42969 71.375 9.28906C71.375 9.80469 71.375 10.4375 71.375 11.1875C71.3906 11.9375 71.3906 12.7422 71.375 13.6016C72.5469 13.7109 73.4609 13.8125 74.1172 13.9062C74.7734 14 75.1172 14.0625 75.1484 14.0938C75.2109 14.1562 75.2344 14.2891 75.2188 14.4922C75.2031 14.6797 75.1641 14.8906 75.1016 15.125C75.0391 15.3594 74.9609 15.5859 74.8672 15.8047C74.7734 16.0078 74.6797 16.1406 74.5859 16.2031C74.5078 16.2344 74.1953 16.2812 73.6484 16.3438C73.1172 16.3906 72.3594 16.4375 71.375 16.4844C71.375 17.1562 71.3672 17.8203 71.3516 18.4766C71.3516 19.1328 71.3438 19.7344 71.3281 20.2812C72.8438 20.2969 73.9453 20.3281 74.6328 20.375C75.3359 20.4062 75.7188 20.4531 75.7812 20.5156C75.8438 20.5938 75.8438 20.7422 75.7812 20.9609C75.7344 21.1797 75.6484 21.4141 75.5234 21.6641C75.4141 21.8984 75.2891 22.1328 75.1484 22.3672C75.0234 22.6016 74.9219 22.7656 74.8438 22.8594C74.8125 22.8906 74.625 22.9062 74.2812 22.9062C73.9375 22.8906 73.5547 22.8672 73.1328 22.8359C72.7109 22.8047 72.3047 22.7734 71.9141 22.7422C71.5234 22.6953 71.2656 22.6562 71.1406 22.625C70.9062 22.5469 70.6562 22.4219 70.3906 22.25C70.125 22.0625 69.9141 21.8281 69.7578 21.5469C69.7266 21.4688 69.6719 21.2109 69.5938 20.7734C69.5312 20.3203 69.4609 19.75 69.3828 19.0625C69.3047 18.375 69.2266 17.6016 69.1484 16.7422C69.0703 15.8828 68.9922 15.0078 68.9141 14.1172C68.8359 13.2266 68.7656 12.3516 68.7031 11.4922C68.6406 10.6328 68.5859 9.85938 68.5391 9.17188C68.5078 8.46875 68.4922 7.89063 68.4922 7.4375C68.4922 6.96875 68.5156 6.6875 68.5625 6.59375C68.6094 6.46875 68.8281 6.375 69.2188 6.3125C69.6094 6.25 70.0781 6.21094 70.625 6.19531C71.1719 6.16406 71.7578 6.15625 72.3828 6.17188C73.0234 6.1875 73.6172 6.21875 74.1641 6.26562C74.7109 6.29688 75.1719 6.34375 75.5469 6.40625C75.9219 6.45312 76.1328 6.5 76.1797 6.54688C76.2422 6.625 76.2734 6.80469 76.2734 7.08594C76.2891 7.36719 76.2734 7.67969 76.2266 8.02344C76.1953 8.35156 76.1406 8.67188 76.0625 8.98438C76 9.28125 75.9297 9.47656 75.8516 9.57031ZM83.0938 10.6719C83.1875 10.7812 83.2734 10.8984 83.3516 11.0234C83.4297 11.1328 83.5 11.2891 83.5625 11.4922C83.625 11.6797 83.6719 11.9297 83.7031 12.2422C83.75 12.5547 83.7734 12.9609 83.7734 13.4609C83.7734 14.2578 83.75 15.0625 83.7031 15.875C83.6719 16.6719 83.6406 17.375 83.6094 17.9844C83.5938 18.5312 83.5781 19.0391 83.5625 19.5078C83.5469 19.9766 83.5312 20.3906 83.5156 20.75C83.5 21.0938 83.4766 21.3672 83.4453 21.5703C83.4297 21.7734 83.4141 21.8828 83.3984 21.8984C83.3359 21.9453 83.2344 21.9297 83.0938 21.8516C82.9688 21.7578 82.8281 21.6406 82.6719 21.5C82.5312 21.3594 82.3984 21.2109 82.2734 21.0547C82.1484 20.8984 82.0703 20.7734 82.0391 20.6797C82.0391 20.6016 82.0156 20.375 81.9688 20C81.5938 20.2188 81.1797 20.375 80.7266 20.4688C80.2734 20.5469 79.8203 20.5781 79.3672 20.5625C78.9297 20.5312 78.5234 20.4453 78.1484 20.3047C77.7734 20.1641 77.4922 19.9766 77.3047 19.7422C77.2266 19.6484 77.1562 19.5078 77.0938 19.3203C77.0469 19.1328 77 18.9219 76.9531 18.6875C76.9219 18.4375 76.8906 18.1797 76.8594 17.9141C76.8281 17.6328 76.8047 17.375 76.7891 17.1406C76.7578 16.5312 76.8359 16.0078 77.0234 15.5703C77.2109 15.1172 77.5547 14.7812 78.0547 14.5625C78.2734 14.4688 78.5625 14.4219 78.9219 14.4219C79.2969 14.4062 79.6641 14.4219 80.0234 14.4688C80.3984 14.5 80.7344 14.5469 81.0312 14.6094C81.3281 14.6562 81.5156 14.6953 81.5938 14.7266C81.5312 13.9297 81.4844 13.2422 81.4531 12.6641C81.4219 12.0703 81.3594 11.6875 81.2656 11.5156C81.1875 11.4062 81.0938 11.2969 80.9844 11.1875C80.8906 11.1094 80.7656 11.0234 80.6094 10.9297C80.4531 10.8359 80.2656 10.7656 80.0469 10.7188C79.875 10.6875 79.7188 10.7578 79.5781 10.9297C79.4531 11.0859 79.3359 11.3672 79.2266 11.7734C79.1328 12.1641 79.0781 12.7656 79.0625 13.5781C78.5156 13.5938 78.0938 13.5938 77.7969 13.5781C77.5156 13.5469 77.3047 13.5156 77.1641 13.4844C76.9922 13.4531 76.8906 13.4141 76.8594 13.3672C76.8281 13.3047 76.8438 13.0781 76.9062 12.6875C76.9688 12.2812 77.0547 11.8438 77.1641 11.375C77.2891 10.9062 77.4297 10.4609 77.5859 10.0391C77.7578 9.61719 77.9375 9.35156 78.125 9.24219C78.5 9.02344 78.9453 8.94531 79.4609 9.00781C79.9922 9.07031 80.5078 9.20312 81.0078 9.40625C81.5078 9.60938 81.9531 9.83594 82.3438 10.0859C82.7344 10.3359 82.9844 10.5312 83.0938 10.6719ZM81.6406 17.5156C81.6406 17.4375 81.6484 17.3359 81.6641 17.2109C81.6797 17.0703 81.6875 16.9297 81.6875 16.7891C81.6875 16.6484 81.6797 16.5156 81.6641 16.3906C81.6641 16.2656 81.6484 16.1719 81.6172 16.1094C81.5703 16.0156 81.4297 15.9375 81.1953 15.875C80.9766 15.8125 80.7266 15.7734 80.4453 15.7578C80.1641 15.7266 79.8984 15.7188 79.6484 15.7344C79.3984 15.7344 79.2266 15.7656 79.1328 15.8281C79.0078 15.9062 78.9141 16.0156 78.8516 16.1562C78.8047 16.2969 78.7734 16.5156 78.7578 16.8125C78.7578 16.9531 78.7656 17.1016 78.7812 17.2578C78.7969 17.4141 78.8125 17.5703 78.8281 17.7266C78.8594 17.8672 78.8906 17.9922 78.9219 18.1016C78.9688 18.2109 79.0156 18.2812 79.0625 18.3125C79.1719 18.3906 79.3594 18.4609 79.625 18.5234C79.9062 18.5703 80.1875 18.5859 80.4688 18.5703C80.75 18.5391 81.0078 18.4453 81.2422 18.2891C81.4766 18.1328 81.6094 17.875 81.6406 17.5156ZM90.3594 10.2266C90.4844 10.3047 90.6016 10.4609 90.7109 10.6953C90.8359 10.9141 90.9453 11.1719 91.0391 11.4688C91.1484 11.75 91.2344 12.0547 91.2969 12.3828C91.375 12.7109 91.4375 13.0156 91.4844 13.2969C91.5469 13.5781 91.5859 13.8203 91.6016 14.0234C91.6172 14.2109 91.6172 14.3281 91.6016 14.375C91.5703 14.4375 91.4766 14.5 91.3203 14.5625C91.1797 14.625 90.9688 14.6953 90.6875 14.7734C90.4062 14.8516 90.0156 14.9375 89.5156 15.0312C89.4844 14.1719 89.4219 13.5234 89.3281 13.0859C89.2344 12.6328 89.1328 12.3125 89.0234 12.125C88.8984 11.9062 88.7656 11.7969 88.625 11.7969C88.4844 11.8594 88.3594 11.9375 88.25 12.0312C88.1406 12.1094 88.0469 12.1953 87.9688 12.2891C87.875 12.3984 87.7891 12.5156 87.7109 12.6406C87.6797 12.6875 87.6484 12.7969 87.6172 12.9688C87.5859 13.1406 87.5547 13.3984 87.5234 13.7422C87.5234 13.8516 87.5156 14.0781 87.5 14.4219C87.5 14.7656 87.4922 15.1641 87.4766 15.6172C87.4766 16.0703 87.4688 16.5469 87.4531 17.0469C87.4531 17.5469 87.4453 18.0156 87.4297 18.4531C87.4297 18.875 87.4219 19.2344 87.4062 19.5312C87.4062 19.8281 87.3984 20 87.3828 20.0469C87.3516 20.125 87.2734 20.2344 87.1484 20.375C87.0234 20.5156 86.8828 20.6484 86.7266 20.7734C86.5703 20.8828 86.4219 20.9766 86.2812 21.0547C86.1406 21.1172 86.0469 21.1094 86 21.0312C85.9531 20.9844 85.9062 20.7812 85.8594 20.4219C85.8125 20.0625 85.7578 19.625 85.6953 19.1094C85.6484 18.5781 85.5938 18 85.5312 17.375C85.4688 16.75 85.4141 16.1484 85.3672 15.5703C85.3203 14.9922 85.2812 14.4766 85.25 14.0234C85.2188 13.5547 85.1953 13.2188 85.1797 13.0156C85.1641 12.7188 85.1484 12.3906 85.1328 12.0312C85.1172 11.6719 85.1016 11.3359 85.0859 11.0234C85.0859 10.6953 85.0859 10.4141 85.0859 10.1797C85.1016 9.92969 85.1328 9.78125 85.1797 9.73438C85.2109 9.6875 85.3125 9.67969 85.4844 9.71094C85.6719 9.72656 85.8672 9.77344 86.0703 9.85156C86.2891 9.91406 86.4922 10 86.6797 10.1094C86.8672 10.2188 86.9922 10.3203 87.0547 10.4141C87.1016 10.4922 87.1484 10.6094 87.1953 10.7656C87.4922 10.6094 87.7734 10.4688 88.0391 10.3438C88.3203 10.2031 88.5859 10.1016 88.8359 10.0391C89.1016 9.97656 89.3594 9.96094 89.6094 9.99219C89.8594 10.0078 90.1094 10.0859 90.3594 10.2266ZM99.0781 13.1797C99.0781 13.4297 99.0469 13.7891 98.9844 14.2578C98.9375 14.7266 98.8672 15.2422 98.7734 15.8047C98.6797 16.3516 98.5781 16.9219 98.4688 17.5156C98.375 18.0938 98.2734 18.625 98.1641 19.1094C98.0703 19.5938 97.9844 20 97.9062 20.3281C97.8438 20.6562 97.8047 20.8359 97.7891 20.8672C97.7578 20.9141 97.6719 20.9453 97.5312 20.9609C97.4062 20.9609 97.2578 20.9453 97.0859 20.9141C96.9297 20.8828 96.7812 20.8359 96.6406 20.7734C96.5156 20.7109 96.4375 20.6328 96.4062 20.5391C96.3906 20.4766 96.3828 20.2578 96.3828 19.8828C96.3984 19.5078 96.4141 19.0625 96.4297 18.5469C96.4609 18.0156 96.4922 17.4531 96.5234 16.8594C96.5547 16.25 96.5859 15.6875 96.6172 15.1719C96.6641 14.6406 96.6953 14.1875 96.7109 13.8125C96.7422 13.4375 96.7578 13.2109 96.7578 13.1328C96.7578 12.8516 96.7266 12.5859 96.6641 12.3359C96.6172 12.0703 96.5547 11.8438 96.4766 11.6562C96.3984 11.4688 96.3047 11.3281 96.1953 11.2344C96.1016 11.125 96.0156 11.0859 95.9375 11.1172C95.7344 11.1484 95.5625 11.2031 95.4219 11.2812C95.2812 11.3438 95.1641 11.4141 95.0703 11.4922C94.9609 11.5859 94.875 11.6953 94.8125 11.8203C94.7969 11.8516 94.7656 11.9453 94.7188 12.1016C94.6875 12.2578 94.6719 12.4375 94.6719 12.6406C94.6719 12.7031 94.6719 12.9297 94.6719 13.3203C94.6719 13.6953 94.6641 14.1484 94.6484 14.6797C94.6484 15.2109 94.6406 15.7891 94.625 16.4141C94.625 17.0234 94.6172 17.5938 94.6016 18.125C94.6016 18.6406 94.5938 19.0859 94.5781 19.4609C94.5625 19.8359 94.5469 20.0469 94.5312 20.0938C94.5 20.1875 94.4219 20.3203 94.2969 20.4922C94.1719 20.6484 94.0312 20.7969 93.875 20.9375C93.7188 21.0781 93.5703 21.1875 93.4297 21.2656C93.2891 21.3281 93.1953 21.3125 93.1484 21.2188C93.1016 21.1719 93.0547 20.9453 93.0078 20.5391C92.9609 20.1172 92.9062 19.6094 92.8438 19.0156C92.7969 18.4062 92.7422 17.75 92.6797 17.0469C92.6172 16.3281 92.5625 15.6406 92.5156 14.9844C92.4688 14.3281 92.4297 13.7344 92.3984 13.2031C92.3672 12.6719 92.3438 12.2891 92.3281 12.0547C92.3125 11.7266 92.2969 11.3594 92.2812 10.9531C92.2656 10.5312 92.25 10.1406 92.2344 9.78125C92.2344 9.40625 92.2344 9.08594 92.2344 8.82031C92.25 8.53906 92.2812 8.36719 92.3281 8.30469C92.3594 8.24219 92.4609 8.22656 92.6328 8.25781C92.8203 8.28906 93.0156 8.35156 93.2188 8.44531C93.4375 8.52344 93.6406 8.625 93.8281 8.75C94.0156 8.85938 94.1406 8.96875 94.2031 9.07812C94.2344 9.17188 94.2734 9.28125 94.3203 9.40625C94.3672 9.51562 94.4062 9.70312 94.4375 9.96875C94.7031 9.8125 94.9922 9.67188 95.3047 9.54688C95.6172 9.40625 95.9219 9.30469 96.2188 9.24219C96.5312 9.16406 96.8281 9.14062 97.1094 9.17188C97.3906 9.1875 97.6406 9.26562 97.8594 9.40625C98 9.51562 98.1406 9.70312 98.2812 9.96875C98.4375 10.2344 98.5703 10.5469 98.6797 10.9062C98.8047 11.2656 98.8984 11.6484 98.9609 12.0547C99.0391 12.4453 99.0781 12.8203 99.0781 13.1797Z" fill="#14DA8F"/>
</svg>
